<svg xmlns="http://www.w3.org/2000/svg" viewBox="0 0 1640 624" width="1640" height="624">
  <!-- Background: Dark Hex/Grid Pattern -->
  <rect width="100%" height="100%" fill="#0a0a0a" />
  
  <defs>
    <!-- Grid Pattern -->
    <pattern id="grid" width="40" height="40" patternUnits="userSpaceOnUse">
      <path d="M 40 0 L 0 0 0 40" fill="none" stroke="#1a1a1a" stroke-width="1"/>
    </pattern>
    
    <!-- Neon Gradient for Text/Icon -->
    <linearGradient id="neonText" x1="0%" y1="0%" x2="100%" y2="0%">
      <stop offset="0%" style="stop-color:#22d3ee;stop-opacity:1" />
      <stop offset="100%" style="stop-color:#3b82f6;stop-opacity:1" />
    </linearGradient>
    
    <!-- Glow Filter -->
    <filter id="glow" x="-50%" y="-50%" width="200%" height="200%">
      <feGaussianBlur in="SourceGraphic" stdDeviation="5" result="blur"/>
      <feColorMatrix in="blur" type="matrix" values="
        0 0 0 0 0
        0 0 0 0 0.8
        0 0 0 0 1
        0 0 0 0.5 0" result="coloredBlur"/>
      <feMerge>
        <feMergeNode in="coloredBlur"/>
        <feMergeNode in="SourceGraphic"/>
      </feMerge>
    </filter>
  </defs>

  <!-- Background Grid -->
  <rect width="100%" height="100%" fill="url(#grid)" />

  <!-- Content Group (Centered) -->
  <g transform="translate(820, 312)">
    
    <!-- Icon (Left of text) -->
    <!-- Scale 11 -> Size approx 264px. Center offset ~132. 
         Target Center Y=0 (Text Mid). Origin Y should be -132.
         Target Right Edge < Text Left (-400). Center X < -532. Origin X < -664. -->
    <g transform="translate(-750, -132) scale(11)">
       <path fill="url(#neonText)" filter="url(#glow)" d="M4 14a1 1 0 0 1-.78-1.63l9.9-10.2a.5.5 0 0 1 .86.46l-1.92 6.02A1 1 0 0 0 13 10h7a1 1 0 0 1 .78 1.63l-9.9 10.2a.5.5 0 0 1-.86-.46l1.92-6.02A1 1 0 0 0 11 14z"/>
    </g>

    <!-- Main Title: NEON NEXUS -->
    <!-- Centered vertically on baseline ~ 50 to visual mid -->
    <text x="-400" y="55" font-family="'Segoe UI', Roboto, Helvetica, Arial, sans-serif" font-weight="900" font-size="170" fill="#ffffff" letter-spacing="4">NEON</text>
    <text x="110" y="55" font-family="'Segoe UI', Roboto, Helvetica, Arial, sans-serif" font-weight="900" font-size="170" fill="url(#neonText)" letter-spacing="4" filter="url(#glow)">NEXUS</text>

    <!-- Tagline -->
    <text x="50" y="160" font-family="'Consolas', 'Courier New', monospace" font-weight="bold" font-size="38" fill="#94a3b8" text-anchor="middle" letter-spacing="10">
      INFINITE STORE :: STEAM DEALS
    </text>

  </g>
</svg>
