
<svg xmlns="http://www.w3.org/2000/svg" viewBox="0 0 1640 624" width="1640" height="624">
  <defs>
    <!-- Grid Pattern -->
    <pattern id="grid" width="40" height="40" patternUnits="userSpaceOnUse">
      <path d="M 40 0 L 0 0 0 40" fill="none" stroke="#1a1a1a" stroke-width="1"/>
    </pattern>
    
    <!-- Neon Gradient for Text/Icon -->
    <linearGradient id="neonText" x1="0%" y1="0%" x2="100%" y2="0%">
      <stop offset="0%" style="stop-color:#22d3ee;stop-opacity:1" />
      <stop offset="100%" style="stop-color:#3b82f6;stop-opacity:1" />
    </linearGradient>
    
    <!-- Glow Filter -->
    <filter id="glow" x="-50%" y="-50%" width="200%" height="200%">
      <feGaussianBlur in="SourceGraphic" stdDeviation="5" result="blur"/>
      <feColorMatrix in="blur" type="matrix" values="
        0 0 0 0 0
        0 0 0 0 0.8
        0 0 0 0 1
        0 0 0 0.5 0" result="coloredBlur"/>
      <feMerge>
        <feMergeNode in="coloredBlur"/>
        <feMergeNode in="SourceGraphic"/>
      </feMerge>
    </filter>
  </defs>

  <!-- Background: Dark Hex/Grid Pattern -->
  <rect width="100%" height="100%" fill="#0a0a0a" />
  <rect width="100%" height="100%" fill="url(#grid)" />

  <!-- Content Group (Centered) -->
  <g transform="translate(820, 312)">
    
    <!-- Icon (Left of text) -->
    <g transform="translate(-640, -120) scale(11)">
       <path fill="url(#neonText)" filter="url(#glow)" d="M4 14a1 1 0 0 1-.78-1.63l9.9-10.2a.5.5 0 0 1 .86.46l-1.92 6.02A1 1 0 0 0 13 10h7a1 1 0 0 1 .78 1.63l-9.9 10.2a.5.5 0 0 1-.86-.46l1.92-6.02A1 1 0 0 0 11 14z"/>
    </g>

    <!-- Main Title: NEON NEXUS (Clean Paths) -->
    <!-- NEON -->
    <path fill="#ffffff" d="M-310.90 56.20L-310.90-34.80L-242.39 16.29L-242.39-34.80L-218.99-34.80L-218.99 56.20L-287.50 5.11L-287.50 56.20L-310.90 56.20ZM-200.79 56.20L-200.79-34.80L-112.78-34.80L-120.58-23.10L-177.39-23.10L-177.39 4.85L-115.38 4.85L-115.38 16.55L-177.39 16.55L-177.39 44.50L-112.78 44.50L-120.58 56.20L-200.79 56.20ZM-99.78 29.03L-99.78-34.80L-3.19-34.80L-3.19 56.20L-72.61 56.20L-99.78 29.03ZM-52.07 44.50L-26.59 44.50L-26.59-23.10L-76.38-23.10L-76.38 20.19L-52.07 44.50ZM15.01 56.20L15.01-34.80L83.52 16.29L83.52-34.80L106.92-34.80L106.92 56.20L38.41 5.11L38.41 56.20L15.01 56.20Z"/>
    <!-- NEXUS -->
    <path fill="url(#neonText)" filter="url(#glow)" d="M169.10 56.20L169.10-34.80L237.61 16.29L237.61-34.80L261.01-34.80L261.01 56.20L192.50 5.11L192.50 56.20L169.10 56.20ZM279.21 56.20L279.21-34.80L367.22-34.80L359.42-23.10L302.61-23.10L302.61 4.85L364.62 4.85L364.62 16.55L302.61 16.55L302.61 44.50L367.22 44.50L359.42 56.20L279.21 56.20ZM453.80 56.20L428.97 27.08L404.14 56.20L376.32 56.20L415.06 10.70L376.32-34.80L404.14-34.80L428.97-5.68L453.80-34.80L481.62-34.80L442.88 10.70L481.62 56.20L453.80 56.20ZM495.92-34.80L519.32-34.80L519.32 44.50L564.43 44.50L564.43-34.80L587.83-34.80L587.83 56.20L495.92 56.20L495.92-34.80ZM613.83 56.20L606.03 44.50L669.21 44.50L679.22 34.49L679.22 16.55L606.03 16.55L606.03-17.51L623.32-34.80L702.62-34.80L694.82-23.10L639.44-23.10L629.43-13.09L629.43 4.85L702.62 4.85L702.62 38.91L685.33 56.20L613.83 56.20Z"/>

    <!-- Tagline (As Path) -->
    <g transform="translate(0, 40)">
       <path fill="#94a3b8" d="M-330.68 127.76L-330.68 110.96L-326.36 110.96L-326.36 127.76L-330.68 127.76ZM-315.80 127.76L-315.80 110.96L-303.16 120.39L-303.16 110.96L-298.84 110.96L-298.84 127.76L-311.48 118.33L-311.48 127.76L-315.80 127.76ZM-288.28 127.76L-288.28 110.96L-272.03 110.96L-273.47 113.12L-283.96 113.12L-283.96 118.28L-272.51 118.28L-273.95 120.44L-283.96 120.44L-283.96 127.76L-288.28 127.76ZM-262.43 127.76L-262.43 110.96L-258.11 110.96L-258.11 127.76L-262.43 127.76ZM-247.55 127.76L-247.55 110.96L-234.90 120.39L-234.90 110.96L-230.58 110.96L-230.58 127.76L-243.23 118.33L-243.23 127.76L-247.55 127.76ZM-220.02 127.76L-220.02 110.96L-215.70 110.96L-215.70 127.76L-220.02 127.76ZM-198.49 127.76L-198.49 113.12L-204.66 113.12L-206.10 110.96L-186.56 110.96L-188.00 113.12L-194.17 113.12L-194.17 127.76L-198.49 127.76ZM-176.96 127.76L-176.96 110.96L-160.72 110.96L-162.16 113.12L-172.64 113.12L-172.64 118.28L-161.20 118.28L-161.20 120.44L-172.64 120.44L-172.64 125.60L-160.72 125.60L-162.16 127.76L-176.96 127.76ZM-135.28 127.76L-136.72 125.60L-125.05 125.60L-123.20 123.75L-123.20 120.44L-136.72 120.44L-136.72 114.15L-133.52 110.96L-118.88 110.96L-120.32 113.12L-130.55 113.12L-132.40 114.97L-132.40 118.28L-118.88 118.28L-118.88 124.57L-122.08 127.76L-135.28 127.76ZM-101.68 127.76L-101.68 113.12L-107.84 113.12L-109.28 110.96L-89.75 110.96L-91.19 113.12L-97.36 113.12L-97.36 127.76L-101.68 127.76ZM-80.15 122.74L-80.15 110.96L-62.32 110.96L-62.32 127.76L-75.13 127.76L-80.15 122.74ZM-71.34 125.60L-66.64 125.60L-66.64 113.12L-75.83 113.12L-75.83 121.11L-71.34 125.60ZM-46.67 117.80L-38.39 117.80L-38.39 113.12L-47.44 113.12L-47.44 127.76L-51.76 127.76L-51.76 110.96L-34.07 110.96L-34.07 119.96L-39.44 119.96L-32.72 127.76L-38.36 127.76L-46.67 117.80ZM-23.84 127.76L-23.84 110.96L-7.60 110.96L-9.04 113.12L-19.52 113.12L-19.52 118.28L-8.08 118.28L-8.08 120.44L-19.52 120.44L-19.52 125.60L-7.60 125.60L-9.04 127.76L-23.84 127.76ZM16.40 127.76L16.40 124.69L20.72 124.69L20.72 127.76L16.40 127.76ZM16.40 118.81L16.40 115.74L20.72 115.74L20.72 118.81L16.40 118.81ZM24.08 127.76L24.08 124.69L28.40 124.69L28.40 127.76L24.08 127.76ZM24.08 118.81L24.08 115.74L28.40 115.74L28.40 118.81L24.08 118.81ZM54.80 127.76L53.36 125.60L65.03 125.60L66.88 123.75L66.88 120.44L53.36 120.44L53.36 114.15L56.56 110.96L71.20 110.96L69.76 113.12L59.53 113.12L57.68 114.97L57.68 118.28L71.20 118.28L71.20 124.57L68.00 127.76L54.80 127.76ZM88.40 127.76L88.40 113.12L82.24 113.12L80.80 110.96L100.33 110.96L98.89 113.12L92.72 113.12L92.72 127.76L88.40 127.76ZM109.93 127.76L109.93 110.96L126.18 110.96L124.74 113.12L114.25 113.12L114.25 118.28L125.70 118.28L125.70 120.44L114.25 120.44L114.25 125.60L126.18 125.60L124.74 127.76L109.93 127.76ZM135.78 127.76L135.78 110.96L152.75 110.96L152.75 127.76L148.43 127.76L148.43 120.44L140.10 120.44L140.10 127.76L135.78 127.76ZM140.10 118.28L148.43 118.28L148.43 113.12L140.10 113.12L140.10 118.28ZM163.31 127.76L163.31 110.96L172.88 118.09L182.44 110.96L182.44 127.76L178.12 127.76L178.12 118.33L172.88 122.24L167.63 118.33L167.63 127.76L163.31 127.76ZM207.40 127.76L207.40 110.96L219.97 110.96L225.71 119.36L219.97 127.76L207.40 127.76ZM211.72 125.60L216.64 125.60L220.91 119.36L216.64 113.12L211.72 113.12L211.72 125.60ZM235.31 127.76L235.31 110.96L251.56 110.96L250.12 113.12L239.63 113.12L239.63 118.28L251.08 118.28L251.08 120.44L239.63 120.44L239.63 125.60L251.56 125.60L250.12 127.76L235.31 127.76ZM261.16 127.76L261.16 110.96L278.12 110.96L278.12 127.76L273.80 127.76L273.80 120.44L265.48 120.44L265.48 127.76L261.16 127.76ZM265.48 118.28L273.80 118.28L273.80 113.12L265.48 113.12L265.48 118.28ZM288.68 127.76L288.68 110.96L293.00 110.96L293.00 125.60L303.97 125.60L302.53 127.76L288.68 127.76ZM314.29 127.76L312.85 125.60L324.52 125.60L326.36 123.75L326.36 120.44L312.85 120.44L312.85 114.15L316.04 110.96L330.68 110.96L329.24 113.12L319.02 113.12L317.17 114.97L317.17 118.28L330.68 118.28L330.68 124.57L327.49 127.76L314.29 127.76Z"/>
    </g>

  </g>
</svg>